<mxfile host="app.diagrams.net" modified="2024-03-22T10:26:25.286Z" agent="Mozilla/5.0 (Windows NT 10.0; Win64; x64) AppleWebKit/537.36 (KHTML, like Gecko) Chrome/122.0.0.0 Safari/537.36" etag="cn_KFGRqsbKmJPeWaGbe" version="24.0.7" type="device">
  <diagram id="C5RBs43oDa-KdzZeNtuy" name="Page-1">
    <mxGraphModel dx="1434" dy="738" grid="1" gridSize="10" guides="1" tooltips="1" connect="1" arrows="1" fold="1" page="1" pageScale="1" pageWidth="827" pageHeight="1169" math="0" shadow="0">
      <root>
        <mxCell id="WIyWlLk6GJQsqaUBKTNV-0" />
        <mxCell id="WIyWlLk6GJQsqaUBKTNV-1" parent="WIyWlLk6GJQsqaUBKTNV-0" />
        <mxCell id="te1C9Fm9rQnIJF0P8-B2-2" value="" style="edgeStyle=orthogonalEdgeStyle;rounded=0;html=1;jettySize=auto;orthogonalLoop=1;fontSize=11;endArrow=block;endFill=0;endSize=8;strokeWidth=1;shadow=0;labelBackgroundColor=none;exitX=1;exitY=0.5;exitDx=0;exitDy=0;" edge="1" parent="WIyWlLk6GJQsqaUBKTNV-1" source="te1C9Fm9rQnIJF0P8-B2-21">
          <mxGeometry y="10" relative="1" as="geometry">
            <mxPoint as="offset" />
            <mxPoint x="480" y="790" as="sourcePoint" />
            <mxPoint x="480" y="240" as="targetPoint" />
            <Array as="points">
              <mxPoint x="646" y="770" />
              <mxPoint x="646" y="240" />
            </Array>
          </mxGeometry>
        </mxCell>
        <mxCell id="te1C9Fm9rQnIJF0P8-B2-3" value="Start" style="ellipse;whiteSpace=wrap;html=1;" vertex="1" parent="WIyWlLk6GJQsqaUBKTNV-1">
          <mxGeometry x="354" y="80" width="120" height="40" as="geometry" />
        </mxCell>
        <mxCell id="te1C9Fm9rQnIJF0P8-B2-4" value="Setup" style="rounded=1;whiteSpace=wrap;html=1;fontSize=12;glass=0;strokeWidth=1;shadow=0;" vertex="1" parent="WIyWlLk6GJQsqaUBKTNV-1">
          <mxGeometry x="354" y="160" width="120" height="40" as="geometry" />
        </mxCell>
        <mxCell id="te1C9Fm9rQnIJF0P8-B2-5" value="Loop" style="rounded=1;whiteSpace=wrap;html=1;fontSize=12;glass=0;strokeWidth=1;shadow=0;" vertex="1" parent="WIyWlLk6GJQsqaUBKTNV-1">
          <mxGeometry x="350" y="230" width="130" height="50" as="geometry" />
        </mxCell>
        <mxCell id="te1C9Fm9rQnIJF0P8-B2-6" value="Error?" style="rhombus;whiteSpace=wrap;html=1;shadow=0;fontFamily=Helvetica;fontSize=12;align=center;strokeWidth=1;spacing=6;spacingTop=-4;" vertex="1" parent="WIyWlLk6GJQsqaUBKTNV-1">
          <mxGeometry x="376" y="320" width="76" height="40" as="geometry" />
        </mxCell>
        <mxCell id="te1C9Fm9rQnIJF0P8-B2-9" value="" style="rounded=0;html=1;jettySize=auto;orthogonalLoop=1;fontSize=11;endArrow=block;endFill=0;endSize=8;strokeWidth=1;shadow=0;labelBackgroundColor=none;edgeStyle=orthogonalEdgeStyle;exitX=0.5;exitY=1;exitDx=0;exitDy=0;entryX=0.5;entryY=0;entryDx=0;entryDy=0;" edge="1" parent="WIyWlLk6GJQsqaUBKTNV-1" source="te1C9Fm9rQnIJF0P8-B2-3" target="te1C9Fm9rQnIJF0P8-B2-4">
          <mxGeometry y="20" relative="1" as="geometry">
            <mxPoint as="offset" />
            <mxPoint x="414" y="120" as="sourcePoint" />
            <mxPoint x="414" y="160" as="targetPoint" />
          </mxGeometry>
        </mxCell>
        <mxCell id="te1C9Fm9rQnIJF0P8-B2-10" value="" style="rounded=0;html=1;jettySize=auto;orthogonalLoop=1;fontSize=11;endArrow=block;endFill=0;endSize=8;strokeWidth=1;shadow=0;labelBackgroundColor=none;edgeStyle=orthogonalEdgeStyle;exitX=0.5;exitY=1;exitDx=0;exitDy=0;entryX=0.5;entryY=0;entryDx=0;entryDy=0;" edge="1" parent="WIyWlLk6GJQsqaUBKTNV-1" source="te1C9Fm9rQnIJF0P8-B2-6" target="te1C9Fm9rQnIJF0P8-B2-12">
          <mxGeometry y="20" relative="1" as="geometry">
            <mxPoint as="offset" />
            <mxPoint x="413.75" y="360" as="sourcePoint" />
            <mxPoint x="413.75" y="400" as="targetPoint" />
          </mxGeometry>
        </mxCell>
        <mxCell id="te1C9Fm9rQnIJF0P8-B2-11" value="No" style="edgeLabel;html=1;align=center;verticalAlign=middle;resizable=0;points=[];fontSize=12;" vertex="1" connectable="0" parent="te1C9Fm9rQnIJF0P8-B2-10">
          <mxGeometry x="0.4264" y="-1" relative="1" as="geometry">
            <mxPoint x="1" y="-16" as="offset" />
          </mxGeometry>
        </mxCell>
        <mxCell id="te1C9Fm9rQnIJF0P8-B2-12" value="Read Wi-Fi" style="shape=parallelogram;perimeter=parallelogramPerimeter;whiteSpace=wrap;html=1;fixedSize=1;" vertex="1" parent="WIyWlLk6GJQsqaUBKTNV-1">
          <mxGeometry x="354" y="400" width="120" height="40" as="geometry" />
        </mxCell>
        <mxCell id="te1C9Fm9rQnIJF0P8-B2-13" value="" style="rounded=0;html=1;jettySize=auto;orthogonalLoop=1;fontSize=11;endArrow=block;endFill=0;endSize=8;strokeWidth=1;shadow=0;labelBackgroundColor=none;edgeStyle=orthogonalEdgeStyle;entryX=0.5;entryY=0;entryDx=0;entryDy=0;exitX=0.5;exitY=1;exitDx=0;exitDy=0;" edge="1" parent="WIyWlLk6GJQsqaUBKTNV-1" source="te1C9Fm9rQnIJF0P8-B2-12">
          <mxGeometry y="20" relative="1" as="geometry">
            <mxPoint as="offset" />
            <mxPoint x="413.9" y="440.96" as="sourcePoint" />
            <mxPoint x="414" y="480" as="targetPoint" />
            <Array as="points" />
          </mxGeometry>
        </mxCell>
        <mxCell id="te1C9Fm9rQnIJF0P8-B2-19" value="" style="rounded=0;html=1;jettySize=auto;orthogonalLoop=1;fontSize=11;endArrow=block;endFill=0;endSize=8;strokeWidth=1;shadow=0;labelBackgroundColor=none;edgeStyle=orthogonalEdgeStyle;exitX=0.5;exitY=1;exitDx=0;exitDy=0;entryX=0.504;entryY=-0.054;entryDx=0;entryDy=0;entryPerimeter=0;" edge="1" parent="WIyWlLk6GJQsqaUBKTNV-1" target="te1C9Fm9rQnIJF0P8-B2-21">
          <mxGeometry y="20" relative="1" as="geometry">
            <mxPoint as="offset" />
            <mxPoint x="414" y="670" as="sourcePoint" />
            <mxPoint x="413.84000000000003" y="718" as="targetPoint" />
          </mxGeometry>
        </mxCell>
        <mxCell id="te1C9Fm9rQnIJF0P8-B2-20" value="Yes" style="edgeLabel;html=1;align=center;verticalAlign=middle;resizable=0;points=[];fontSize=12;" vertex="1" connectable="0" parent="te1C9Fm9rQnIJF0P8-B2-19">
          <mxGeometry x="0.4264" y="-1" relative="1" as="geometry">
            <mxPoint x="1" y="-14" as="offset" />
          </mxGeometry>
        </mxCell>
        <mxCell id="te1C9Fm9rQnIJF0P8-B2-21" value="Write Wi-Fi&lt;div&gt;(send to App)&lt;br&gt;&lt;/div&gt;" style="shape=parallelogram;perimeter=parallelogramPerimeter;whiteSpace=wrap;html=1;fixedSize=1;" vertex="1" parent="WIyWlLk6GJQsqaUBKTNV-1">
          <mxGeometry x="354" y="750" width="120" height="40" as="geometry" />
        </mxCell>
        <mxCell id="te1C9Fm9rQnIJF0P8-B2-24" value="" style="edgeStyle=orthogonalEdgeStyle;rounded=0;html=1;jettySize=auto;orthogonalLoop=1;fontSize=11;endArrow=block;endFill=0;endSize=8;strokeWidth=1;shadow=0;labelBackgroundColor=none;exitX=1;exitY=0.5;exitDx=0;exitDy=0;entryX=1;entryY=0.5;entryDx=0;entryDy=0;" edge="1" parent="WIyWlLk6GJQsqaUBKTNV-1" source="te1C9Fm9rQnIJF0P8-B2-6" target="te1C9Fm9rQnIJF0P8-B2-4">
          <mxGeometry y="10" relative="1" as="geometry">
            <mxPoint as="offset" />
            <mxPoint x="464" y="670" as="sourcePoint" />
            <mxPoint x="484" y="280" as="targetPoint" />
            <Array as="points">
              <mxPoint x="540" y="340" />
              <mxPoint x="540" y="180" />
            </Array>
          </mxGeometry>
        </mxCell>
        <mxCell id="te1C9Fm9rQnIJF0P8-B2-25" value="Yes" style="edgeLabel;html=1;align=center;verticalAlign=middle;resizable=0;points=[];fontSize=12;" vertex="1" connectable="0" parent="te1C9Fm9rQnIJF0P8-B2-24">
          <mxGeometry x="-0.9513" relative="1" as="geometry">
            <mxPoint x="9" as="offset" />
          </mxGeometry>
        </mxCell>
        <mxCell id="te1C9Fm9rQnIJF0P8-B2-27" value="" style="edgeStyle=orthogonalEdgeStyle;rounded=0;html=1;jettySize=auto;orthogonalLoop=1;fontSize=11;endArrow=block;endFill=0;endSize=8;strokeWidth=1;shadow=0;labelBackgroundColor=none;entryX=0.429;entryY=0.983;entryDx=0;entryDy=0;entryPerimeter=0;" edge="1" parent="WIyWlLk6GJQsqaUBKTNV-1" target="te1C9Fm9rQnIJF0P8-B2-40">
          <mxGeometry y="10" relative="1" as="geometry">
            <mxPoint as="offset" />
            <mxPoint x="350" y="520" as="sourcePoint" />
            <mxPoint x="300" y="500" as="targetPoint" />
            <Array as="points">
              <mxPoint x="250" y="520" />
            </Array>
          </mxGeometry>
        </mxCell>
        <mxCell id="te1C9Fm9rQnIJF0P8-B2-28" value="Yes" style="edgeLabel;html=1;align=center;verticalAlign=middle;resizable=0;points=[];fontSize=12;" vertex="1" connectable="0" parent="te1C9Fm9rQnIJF0P8-B2-27">
          <mxGeometry x="-0.9513" relative="1" as="geometry">
            <mxPoint x="-15" as="offset" />
          </mxGeometry>
        </mxCell>
        <mxCell id="te1C9Fm9rQnIJF0P8-B2-40" value="Write Wi-Fi&lt;div&gt;(send to MTC)&lt;/div&gt;" style="shape=parallelogram;perimeter=parallelogramPerimeter;whiteSpace=wrap;html=1;fixedSize=1;" vertex="1" parent="WIyWlLk6GJQsqaUBKTNV-1">
          <mxGeometry x="190" y="380" width="140" height="50" as="geometry" />
        </mxCell>
        <mxCell id="te1C9Fm9rQnIJF0P8-B2-41" value="" style="edgeStyle=orthogonalEdgeStyle;rounded=0;html=1;jettySize=auto;orthogonalLoop=1;fontSize=11;endArrow=block;endFill=0;endSize=8;strokeWidth=1;shadow=0;labelBackgroundColor=none;exitX=0.5;exitY=0;exitDx=0;exitDy=0;entryX=0;entryY=0.5;entryDx=0;entryDy=0;" edge="1" parent="WIyWlLk6GJQsqaUBKTNV-1" source="te1C9Fm9rQnIJF0P8-B2-40" target="te1C9Fm9rQnIJF0P8-B2-5">
          <mxGeometry y="10" relative="1" as="geometry">
            <mxPoint as="offset" />
            <mxPoint x="129.72" y="320" as="sourcePoint" />
            <mxPoint x="130" y="260" as="targetPoint" />
            <Array as="points">
              <mxPoint x="250" y="380" />
              <mxPoint x="250" y="255" />
            </Array>
          </mxGeometry>
        </mxCell>
        <mxCell id="te1C9Fm9rQnIJF0P8-B2-43" value="Requests?&lt;div&gt;(Or, Cr, Pr)&lt;/div&gt;" style="rhombus;whiteSpace=wrap;html=1;shadow=0;fontFamily=Helvetica;fontSize=12;align=center;strokeWidth=1;spacing=6;spacingTop=-4;" vertex="1" parent="WIyWlLk6GJQsqaUBKTNV-1">
          <mxGeometry x="352" y="480" width="124" height="80" as="geometry" />
        </mxCell>
        <mxCell id="te1C9Fm9rQnIJF0P8-B2-48" value="Events?&lt;div&gt;(Oe, Ce, Pe)&lt;/div&gt;" style="rhombus;whiteSpace=wrap;html=1;shadow=0;fontFamily=Helvetica;fontSize=12;align=center;strokeWidth=1;spacing=6;spacingTop=-4;" vertex="1" parent="WIyWlLk6GJQsqaUBKTNV-1">
          <mxGeometry x="352" y="610" width="124" height="80" as="geometry" />
        </mxCell>
        <mxCell id="te1C9Fm9rQnIJF0P8-B2-53" value="" style="rounded=0;html=1;jettySize=auto;orthogonalLoop=1;fontSize=11;endArrow=block;endFill=0;endSize=8;strokeWidth=1;shadow=0;labelBackgroundColor=none;edgeStyle=orthogonalEdgeStyle;exitX=1;exitY=0.5;exitDx=0;exitDy=0;" edge="1" parent="WIyWlLk6GJQsqaUBKTNV-1" source="te1C9Fm9rQnIJF0P8-B2-48">
          <mxGeometry y="20" relative="1" as="geometry">
            <mxPoint as="offset" />
            <mxPoint x="500" y="655" as="sourcePoint" />
            <mxPoint x="480" y="260" as="targetPoint" />
            <Array as="points">
              <mxPoint x="610" y="650" />
              <mxPoint x="610" y="260" />
            </Array>
          </mxGeometry>
        </mxCell>
        <mxCell id="te1C9Fm9rQnIJF0P8-B2-54" value="No" style="edgeLabel;html=1;align=center;verticalAlign=middle;resizable=0;points=[];fontSize=12;" vertex="1" connectable="0" parent="te1C9Fm9rQnIJF0P8-B2-53">
          <mxGeometry x="0.4264" y="-1" relative="1" as="geometry">
            <mxPoint x="-111" y="332" as="offset" />
          </mxGeometry>
        </mxCell>
        <mxCell id="te1C9Fm9rQnIJF0P8-B2-61" value="" style="rounded=0;html=1;jettySize=auto;orthogonalLoop=1;fontSize=11;endArrow=block;endFill=0;endSize=8;strokeWidth=1;shadow=0;labelBackgroundColor=none;edgeStyle=orthogonalEdgeStyle;entryX=0.5;entryY=0;entryDx=0;entryDy=0;exitX=0.5;exitY=1;exitDx=0;exitDy=0;" edge="1" parent="WIyWlLk6GJQsqaUBKTNV-1">
          <mxGeometry y="20" relative="1" as="geometry">
            <mxPoint as="offset" />
            <mxPoint x="414.5" y="280" as="sourcePoint" />
            <mxPoint x="414.5" y="320" as="targetPoint" />
            <Array as="points" />
          </mxGeometry>
        </mxCell>
        <mxCell id="te1C9Fm9rQnIJF0P8-B2-62" value="" style="rounded=0;html=1;jettySize=auto;orthogonalLoop=1;fontSize=11;endArrow=block;endFill=0;endSize=8;strokeWidth=1;shadow=0;labelBackgroundColor=none;edgeStyle=orthogonalEdgeStyle;entryX=0.5;entryY=0;entryDx=0;entryDy=0;" edge="1" parent="WIyWlLk6GJQsqaUBKTNV-1">
          <mxGeometry y="20" relative="1" as="geometry">
            <mxPoint as="offset" />
            <mxPoint x="413" y="200" as="sourcePoint" />
            <mxPoint x="413" y="230" as="targetPoint" />
            <Array as="points" />
          </mxGeometry>
        </mxCell>
        <mxCell id="te1C9Fm9rQnIJF0P8-B2-63" value="" style="rounded=0;html=1;jettySize=auto;orthogonalLoop=1;fontSize=11;endArrow=block;endFill=0;endSize=8;strokeWidth=1;shadow=0;labelBackgroundColor=none;edgeStyle=orthogonalEdgeStyle;exitX=0.5;exitY=1;exitDx=0;exitDy=0;" edge="1" parent="WIyWlLk6GJQsqaUBKTNV-1" target="te1C9Fm9rQnIJF0P8-B2-48">
          <mxGeometry y="20" relative="1" as="geometry">
            <mxPoint as="offset" />
            <mxPoint x="414.5" y="560" as="sourcePoint" />
            <mxPoint x="414.5" y="600" as="targetPoint" />
          </mxGeometry>
        </mxCell>
        <mxCell id="te1C9Fm9rQnIJF0P8-B2-64" value="No" style="edgeLabel;html=1;align=center;verticalAlign=middle;resizable=0;points=[];fontSize=12;" vertex="1" connectable="0" parent="te1C9Fm9rQnIJF0P8-B2-63">
          <mxGeometry x="0.4264" y="-1" relative="1" as="geometry">
            <mxPoint x="1" y="-16" as="offset" />
          </mxGeometry>
        </mxCell>
      </root>
    </mxGraphModel>
  </diagram>
</mxfile>
